<?xml version="1.0" standalone="no"?>
<!-- RINGO favicon — apple mark in brand red. Baked fill (no currentColor)
     since browsers render favicons outside any CSS context. -->
<svg xmlns="http://www.w3.org/2000/svg" viewBox="1050 280 800 800" preserveAspectRatio="xMidYMid meet">
<g transform="translate(0.000000,1536.000000) scale(0.100000,-0.100000)" fill="#D23F3F" stroke="none">
<path d="M12820 11892 c-32 -32 -39 -47 -46 -97 -15 -122 22 -322 96 -514 39 -101 137 -249 219 -331 203 -202 484 -329 768 -347 57 -3 106 -9 108 -13 2 -4 -5 -40 -16 -79 -11 -40 -19 -74 -17 -77 2 -2 35 5 74 15 38 10 108 29 156 41 48 12 89 28 92 34 53 123 74 181 69 189 -3 6 -1 7 5 3 6 -3 20 10 33 30 18 30 20 38 8 45 -11 8 -11 9 2 7 10 -2 42 25 79 65 101 109 206 177 360 231 139 49 167 73 176 154 5 39 2 53 -18 82 -30 45 -83 80 -120 80 -39 0 -205 -62 -296 -111 -140 -75 -295 -201 -368 -300 -20 -28 -40 -47 -44 -42 -4 4 -13 38 -19 75 -14 80 -70 240 -82 232 -5 -3 -6 3 -2 12 5 13 3 15 -7 9 -8 -5 -11 -4 -6 3 9 14 -14 63 -27 55 -6 -3 -7 -1 -3 6 10 15 -33 83 -46 75 -7 -4 -8 -2 -4 5 10 16 -22 64 -36 55 -7 -5 -8 -3 -4 5 10 15 -23 53 -37 44 -6 -4 -7 -1 -2 6 11 18 -92 121 -113 113 -9 -3 -13 -1 -9 5 12 19 -124 119 -149 109 -8 -3 -12 -1 -9 4 7 12 -87 60 -195 98 -119 42 -251 62 -403 62 l-129 0 -38 -38z m410 -277 c52 -13 126 -40 164 -60 54 -27 72 -32 79 -23 6 9 7 8 4 -4 -4 -10 3 -22 18 -32 45 -29 158 -141 198 -195 51 -69 111 -200 137 -298 25 -97 26 -122 3 -117 -240 50 -391 124 -522 258 -36 35 -69 62 -74 59 -6 -3 -7 -1 -3 5 4 7 -6 31 -23 55 -64 94 -122 233 -136 332 l-7 45 33 0 c19 0 77 -11 129 -25z"/>
<path d="M16275 11579 c-27 -5 -138 -25 -245 -45 -107 -20 -273 -49 -368 -65 -95 -15 -181 -33 -191 -39 -38 -20 -63 -68 -63 -120 1 -51 26 -105 45 -93 6 3 7 1 3 -5 -4 -6 4 -18 18 -27 18 -12 46 -16 108 -14 46 1 90 5 99 10 8 4 20 4 27 0 8 -5 3 -16 -18 -36 -16 -15 -27 -33 -23 -38 3 -6 2 -7 -3 -4 -6 3 -41 -22 -80 -56 -38 -34 -100 -86 -137 -115 -37 -30 -64 -59 -60 -64 3 -6 1 -8 -5 -4 -15 9 -267 -161 -267 -181 0 -9 -7 -18 -15 -20 -13 -4 -13 -3 0 6 21 15 5 25 -19 12 -13 -7 -18 -18 -15 -29 5 -13 4 -14 -4 -3 -8 11 -33 1 -133 -51 -171 -89 -324 -148 -695 -267 -122 -39 -257 -86 -300 -105 -43 -18 -114 -47 -157 -65 -93 -40 -253 -135 -250 -150 2 -6 -3 -8 -10 -5 -17 6 -139 -85 -130 -99 3 -5 1 -7 -5 -3 -14 9 -134 -103 -125 -118 3 -6 2 -8 -2 -3 -13 11 -44 -23 -38 -41 4 -13 3 -14 -5 -4 -7 10 -22 -2 -64 -50 -187 -213 -321 -492 -377 -782 -68 -350 -12 -727 155 -1056 55 -110 76 -138 94 -133 13 4 13 3 1 -6 -12 -8 -4 -23 44 -86 36 -48 61 -72 65 -65 5 8 10 9 14 2 3 -6 0 -12 -6 -15 -23 -8 172 -202 306 -305 47 -36 60 -42 68 -31 8 11 9 11 5 -3 -8 -22 39 -54 57 -39 14 11 26 5 26 -13 0 -6 -4 -5 -9 3 -5 8 -11 9 -15 3 -8 -14 60 -55 75 -46 8 5 9 3 4 -6 -6 -10 -37 -11 -144 -5 -75 5 -152 9 -173 9 -20 1 -34 3 -32 6 7 7 -119 40 -134 35 -7 -3 -10 0 -7 5 3 6 0 10 -7 10 -8 0 -46 16 -87 35 -40 19 -77 32 -82 29 -5 -3 -8 -1 -7 4 4 14 -121 94 -134 86 -6 -4 -8 -3 -5 3 8 13 -80 86 -93 78 -6 -4 -9 -3 -8 2 2 5 -39 54 -90 109 -51 54 -90 90 -86 80 5 -14 4 -17 -5 -12 -7 5 -10 15 -7 23 9 23 -13 46 -30 32 -9 -7 -14 -8 -14 -1 0 6 6 12 13 15 9 3 9 7 -2 20 -7 9 -18 14 -24 10 -6 -3 -7 -1 -3 5 11 18 -23 62 -42 55 -13 -4 -14 -3 -4 5 11 8 9 17 -11 49 -36 56 -142 271 -156 316 -8 22 -17 34 -23 31 -7 -4 -8 -2 -4 4 3 6 -9 62 -28 124 -18 62 -46 181 -61 263 -24 130 -28 176 -28 340 0 212 14 320 64 500 33 118 112 291 178 391 208 314 568 478 953 434 l106 -12 76 46 c77 47 144 80 245 121 l54 22 -85 31 c-167 60 -270 76 -498 76 -273 1 -388 -23 -595 -124 -123 -59 -263 -158 -243 -172 9 -6 5 -7 -11 -3 -19 6 -23 4 -18 -8 4 -10 1 -14 -6 -11 -18 7 -161 -141 -152 -157 5 -7 4 -10 -2 -6 -14 9 -37 -19 -27 -34 4 -8 3 -9 -4 -5 -15 9 -109 -133 -155 -235 -77 -168 -136 -386 -157 -574 -22 -207 -12 -507 26 -706 31 -169 98 -404 112 -395 4 2 7 -8 8 -24 2 -68 178 -396 297 -555 80 -108 242 -270 347 -349 115 -87 141 -103 267 -165 359 -178 752 -187 1222 -28 116 39 357 159 353 176 -1 7 2 10 8 6 12 -7 54 16 149 83 35 24 59 47 53 51 -6 4 -4 12 6 21 14 13 15 12 9 -3 -3 -9 -3 -17 2 -17 11 0 131 110 128 118 -1 4 1 7 4 7 14 0 38 28 32 38 -3 5 -1 7 5 3 10 -6 27 10 27 27 0 4 3 6 6 5 13 -5 49 35 42 46 -3 6 -2 8 2 3 5 -4 19 3 32 15 25 23 32 48 8 28 -10 -9 -15 -9 -15 -1 0 10 14 15 33 12 8 -1 107 129 107 142 0 5 -5 5 -12 1 -7 -4 -8 -3 -4 5 4 6 11 9 16 6 8 -5 59 72 99 152 24 48 26 57 9 47 -7 -4 -8 -3 -4 5 4 6 11 9 16 6 11 -7 80 173 108 280 51 192 67 428 43 617 -14 103 -55 264 -95 368 -45 116 -115 252 -126 245 -5 -3 -12 0 -16 6 -4 8 -3 9 4 5 20 -12 13 8 -19 60 -85 133 -192 255 -218 247 -13 -4 -14 -3 -2 5 12 9 6 19 -33 56 -31 28 -54 43 -64 39 -12 -3 -14 -2 -4 4 17 12 -21 49 -39 37 -7 -4 -10 -3 -5 4 4 6 -16 28 -48 52 l-54 41 -59 -24 c-48 -20 -215 -79 -261 -93 -7 -2 24 -29 70 -60 184 -125 328 -264 434 -420 238 -348 310 -720 213 -1107 -11 -43 -17 -83 -13 -89 4 -6 3 -8 -3 -5 -6 4 -14 -5 -18 -20 -9 -38 -118 -254 -156 -311 -18 -26 -47 -66 -66 -89 -20 -26 -31 -48 -27 -55 4 -7 3 -9 -1 -5 -11 10 -186 -163 -178 -176 3 -6 1 -7 -6 -3 -7 4 -27 -6 -48 -25 -21 -18 -85 -63 -143 -102 -58 -38 -105 -73 -105 -77 0 -5 -4 -12 -9 -17 -5 -5 -6 -3 -2 5 10 17 8 16 -79 -24 -146 -67 -141 -67 -231 -28 -43 19 -101 46 -127 60 -26 13 -53 22 -60 18 -7 -4 -9 -4 -5 1 10 11 -119 98 -133 90 -5 -4 -8 -1 -7 7 2 8 -6 12 -22 11 -14 -1 -19 1 -12 4 10 4 9 9 -4 24 -20 22 -42 26 -24 4 9 -10 9 -15 1 -15 -6 0 -12 5 -12 10 -1 6 -2 13 -3 18 -2 16 -213 211 -221 204 -5 -4 -5 -1 -1 6 10 16 -21 53 -39 46 -7 -3 -15 2 -19 12 -5 14 -4 15 9 4 8 -7 15 -8 15 -2 0 15 -26 33 -35 24 -5 -4 -5 -1 -1 5 4 7 -10 37 -32 70 -44 65 -123 219 -141 276 -7 20 -16 35 -19 33 -4 -2 -7 8 -8 22 0 15 -11 63 -23 107 -12 44 -26 135 -31 202 -20 265 31 505 159 750 28 52 48 99 45 104 -3 5 -1 8 4 7 18 -5 71 78 66 103 -4 19 -3 20 4 6 7 -18 9 -18 22 -2 12 14 12 18 -1 27 -11 8 -11 9 3 5 11 -4 35 14 75 56 125 133 243 220 423 314 133 68 181 88 373 153 92 31 164 59 160 64 -4 4 0 4 9 1 17 -7 93 17 313 98 159 59 245 97 391 172 121 62 154 82 339 203 183 121 400 296 389 314 -4 6 -3 8 3 5 6 -4 37 18 71 48 33 30 62 55 65 55 3 0 -2 -33 -9 -72 -8 -40 -14 -95 -14 -122 0 -44 4 -53 39 -86 63 -60 142 -61 203 -4 29 29 43 63 52 129 3 22 20 128 37 235 16 107 28 202 26 212 -3 10 -2 16 2 13 5 -2 18 62 30 143 24 166 24 162 14 161 -5 -1 -30 -5 -58 -10z"/>
<path d="M15455 10337 c-73 -24 -108 -93 -86 -167 12 -41 66 -94 83 -84 6 4 8 3 5 -3 -4 -5 25 -31 64 -58 91 -62 212 -193 272 -294 27 -45 53 -79 58 -76 5 3 6 0 4 -7 -3 -8 10 -48 29 -89 43 -92 88 -243 112 -374 23 -124 26 -477 6 -595 -23 -127 -72 -319 -108 -418 -19 -52 -31 -99 -27 -106 3 -6 2 -7 -2 -3 -12 10 -126 -218 -119 -237 3 -8 1 -17 -5 -21 -7 -3 -8 0 -5 9 11 28 -4 17 -25 -20 -12 -19 -19 -40 -15 -45 3 -5 1 -8 -4 -7 -14 4 -104 -121 -96 -134 4 -6 3 -8 -4 -4 -13 8 -54 43 -45 57 3 5 2 7 -4 4 -13 8 -166 -147 -156 -158 4 -4 3 -6 -2 -2 -6 3 -22 -4 -35 -14 -14 -11 -65 -48 -115 -81 -49 -33 -89 -65 -87 -70 1 -5 -2 -7 -7 -3 -6 3 -23 -1 -38 -8 -41 -21 -181 -67 -237 -78 -34 -6 -82 -30 -150 -75 -56 -36 -164 -97 -241 -135 -77 -38 -138 -69 -135 -69 3 0 43 -7 90 -15 175 -31 412 -15 605 40 173 49 492 231 478 273 -4 14 -3 15 6 2 8 -12 14 -11 34 8 15 14 23 31 20 41 -3 11 2 21 11 24 9 4 16 2 16 -2 0 -5 -6 -11 -12 -14 -7 -2 -9 -8 -5 -13 4 -4 41 25 82 66 53 52 73 80 71 94 -2 12 -1 15 1 8 4 -10 11 -8 29 9 24 22 34 46 14 34 -5 -3 -10 -1 -10 5 0 7 7 10 15 6 23 -8 96 93 89 124 -3 19 -3 21 4 7 7 -18 9 -18 22 -2 12 14 12 18 -1 27 -11 8 -11 9 3 4 20 -6 64 57 52 75 -4 7 -3 9 4 6 14 -10 94 131 87 153 -3 10 -1 21 4 25 7 3 9 -1 6 -12 -3 -10 15 23 40 72 25 50 44 97 42 105 -1 8 3 20 9 25 29 23 126 391 139 525 4 36 8 75 10 87 22 141 11 453 -20 617 -28 143 -47 216 -56 211 -5 -4 -6 1 -3 9 11 29 -102 321 -124 321 -6 0 -14 4 -19 9 -5 5 -3 6 5 2 16 -9 15 -1 -3 35 -9 16 -20 27 -25 24 -5 -3 -12 0 -16 6 -4 8 -3 9 4 5 22 -13 12 6 -34 70 -25 36 -49 62 -55 59 -5 -3 -7 0 -4 7 3 7 -32 50 -80 98 -71 70 -87 82 -96 70 -9 -13 -10 -12 -5 2 7 24 -43 64 -57 46 -6 -9 -7 -8 -3 4 4 13 -8 26 -41 49 -58 41 -140 72 -148 58 -4 -6 -11 -6 -18 -1 -7 6 -24 5 -42 -1z"/>
</g>
</svg>
