<?xml version="1.0" standalone="no"?>
<!-- RINGO full lockup: apple + leaf + arrow + RINGO wordmark + 稟議·精算 subtitle.
     Use on light backgrounds at >120px wide. fill=currentColor for CSS tinting. -->
<svg xmlns="http://www.w3.org/2000/svg" viewBox="0 0 2816 1536" preserveAspectRatio="xMidYMid meet">
<g transform="translate(0.000000,1536.000000) scale(0.100000,-0.100000)" fill="currentColor" stroke="none">
<path d="M12820 11892 c-32 -32 -39 -47 -46 -97 -15 -122 22 -322 96 -514 39 -101 137 -249 219 -331 203 -202 484 -329 768 -347 57 -3 106 -9 108 -13 2 -4 -5 -40 -16 -79 -11 -40 -19 -74 -17 -77 2 -2 35 5 74 15 38 10 108 29 156 41 48 12 89 28 92 34 53 123 74 181 69 189 -3 6 -1 7 5 3 6 -3 20 10 33 30 18 30 20 38 8 45 -11 8 -11 9 2 7 10 -2 42 25 79 65 101 109 206 177 360 231 139 49 167 73 176 154 5 39 2 53 -18 82 -30 45 -83 80 -120 80 -39 0 -205 -62 -296 -111 -140 -75 -295 -201 -368 -300 -20 -28 -40 -47 -44 -42 -4 4 -13 38 -19 75 -14 80 -70 240 -82 232 -5 -3 -6 3 -2 12 5 13 3 15 -7 9 -8 -5 -11 -4 -6 3 9 14 -14 63 -27 55 -6 -3 -7 -1 -3 6 10 15 -33 83 -46 75 -7 -4 -8 -2 -4 5 10 16 -22 64 -36 55 -7 -5 -8 -3 -4 5 10 15 -23 53 -37 44 -6 -4 -7 -1 -2 6 11 18 -92 121 -113 113 -9 -3 -13 -1 -9 5 12 19 -124 119 -149 109 -8 -3 -12 -1 -9 4 7 12 -87 60 -195 98 -119 42 -251 62 -403 62 l-129 0 -38 -38z m410 -277 c52 -13 126 -40 164 -60 54 -27 72 -32 79 -23 6 9 7 8 4 -4 -4 -10 3 -22 18 -32 45 -29 158 -141 198 -195 51 -69 111 -200 137 -298 25 -97 26 -122 3 -117 -240 50 -391 124 -522 258 -36 35 -69 62 -74 59 -6 -3 -7 -1 -3 5 4 7 -6 31 -23 55 -64 94 -122 233 -136 332 l-7 45 33 0 c19 0 77 -11 129 -25z m600 -35 c0 -5 -5 -10 -11 -10 -5 0 -7 5 -4 10 3 6 8 10 11 10 2 0 4 -4 4 -10z m55 -70 c3 -5 -1 -10 -10 -10 -9 0 -13 5 -10 10 3 6 8 10 10 10 2 0 7 -4 10 -10z m-245 -100 c8 -5 11 -10 5 -10 -5 0 -17 5 -25 10 -8 5 -10 10 -5 10 6 0 17 -5 25 -10z m1305 -60 c3 -5 1 -10 -4 -10 -6 0 -11 5 -11 10 0 6 2 10 4 10 3 0 8 -4 11 -10z m-935 -30 c0 -5 -2 -10 -4 -10 -3 0 -8 5 -11 10 -3 6 -1 10 4 10 6 0 11 -4 11 -10z m-793 -112 c-3 -8 -6 -5 -6 6 -1 11 2 17 5 13 3 -3 4 -12 1 -19z m-227 -83 c0 -8 -4 -15 -10 -15 -5 0 -7 7 -4 15 4 8 8 15 10 15 2 0 4 -7 4 -15z m1860 9 c0 -8 -19 -13 -24 -6 -3 5 1 9 9 9 8 0 15 -2 15 -3z m-1840 -50 c0 -8 -4 -12 -10 -9 -5 3 -10 10 -10 16 0 5 5 9 10 9 6 0 10 -7 10 -16z m20 -24 c0 -5 -5 -10 -11 -10 -5 0 -7 5 -4 10 3 6 8 10 11 10 2 0 4 -4 4 -10z m280 -244 c0 -3 -4 -8 -10 -11 -5 -3 -10 -1 -10 4 0 6 5 11 10 11 6 0 10 -2 10 -4z m1060 -40 c0 -3 -4 -8 -10 -11 -5 -3 -10 -1 -10 4 0 6 5 11 10 11 6 0 10 -2 10 -4z"/>
<path d="M16275 11579 c-27 -5 -138 -25 -245 -45 -107 -20 -273 -49 -368 -65 -95 -15 -181 -33 -191 -39 -38 -20 -63 -68 -63 -120 1 -51 26 -105 45 -93 6 3 7 1 3 -5 -4 -6 4 -18 18 -27 18 -12 46 -16 108 -14 46 1 90 5 99 10 8 4 20 4 27 0 8 -5 3 -16 -18 -36 -16 -15 -27 -33 -23 -38 3 -6 2 -7 -3 -4 -6 3 -41 -22 -80 -56 -38 -34 -100 -86 -137 -115 -37 -30 -64 -59 -60 -64 3 -6 1 -8 -5 -4 -15 9 -267 -161 -267 -181 0 -9 -7 -18 -15 -20 -13 -4 -13 -3 0 6 21 15 5 25 -19 12 -13 -7 -18 -18 -15 -29 5 -13 4 -14 -4 -3 -8 11 -33 1 -133 -51 -171 -89 -324 -148 -695 -267 -122 -39 -257 -86 -300 -105 -43 -18 -114 -47 -157 -65 -93 -40 -253 -135 -250 -150 2 -6 -3 -8 -10 -5 -17 6 -139 -85 -130 -99 3 -5 1 -7 -5 -3 -14 9 -134 -103 -125 -118 3 -6 2 -8 -2 -3 -13 11 -44 -23 -38 -41 4 -13 3 -14 -5 -4 -7 10 -22 -2 -64 -50 -187 -213 -321 -492 -377 -782 -68 -350 -12 -727 155 -1056 55 -110 76 -138 94 -133 13 4 13 3 1 -6 -12 -8 -4 -23 44 -86 36 -48 61 -72 65 -65 5 8 10 9 14 2 3 -6 0 -12 -6 -15 -23 -8 172 -202 306 -305 47 -36 60 -42 68 -31 8 11 9 11 5 -3 -8 -22 39 -54 57 -39 14 11 26 5 26 -13 0 -6 -4 -5 -9 3 -5 8 -11 9 -15 3 -8 -14 60 -55 75 -46 8 5 9 3 4 -6 -6 -10 -37 -11 -144 -5 -75 5 -152 9 -173 9 -20 1 -34 3 -32 6 7 7 -119 40 -134 35 -7 -3 -10 0 -7 5 3 6 0 10 -7 10 -8 0 -46 16 -87 35 -40 19 -77 32 -82 29 -5 -3 -8 -1 -7 4 4 14 -121 94 -134 86 -6 -4 -8 -3 -5 3 8 13 -80 86 -93 78 -6 -4 -9 -3 -8 2 2 5 -39 54 -90 109 -51 54 -90 90 -86 80 5 -14 4 -17 -5 -12 -7 5 -10 15 -7 23 9 23 -13 46 -30 32 -9 -7 -14 -8 -14 -1 0 6 6 12 13 15 9 3 9 7 -2 20 -7 9 -18 14 -24 10 -6 -3 -7 -1 -3 5 11 18 -23 62 -42 55 -13 -4 -14 -3 -4 5 11 8 9 17 -11 49 -36 56 -142 271 -156 316 -8 22 -17 34 -23 31 -7 -4 -8 -2 -4 4 3 6 -9 62 -28 124 -18 62 -46 181 -61 263 -24 130 -28 176 -28 340 0 212 14 320 64 500 33 118 112 291 178 391 208 314 568 478 953 434 l106 -12 76 46 c77 47 144 80 245 121 l54 22 -85 31 c-167 60 -270 76 -498 76 -273 1 -388 -23 -595 -124 -123 -59 -263 -158 -243 -172 9 -6 5 -7 -11 -3 -19 6 -23 4 -18 -8 4 -10 1 -14 -6 -11 -18 7 -161 -141 -152 -157 5 -7 4 -10 -2 -6 -14 9 -37 -19 -27 -34 4 -8 3 -9 -4 -5 -15 9 -109 -133 -155 -235 -77 -168 -136 -386 -157 -574 -22 -207 -12 -507 26 -706 31 -169 98 -404 112 -395 4 2 7 -8 8 -24 2 -68 178 -396 297 -555 80 -108 242 -270 347 -349 115 -87 141 -103 267 -165 359 -178 752 -187 1222 -28 116 39 357 159 353 176 -1 7 2 10 8 6 12 -7 54 16 149 83 35 24 59 47 53 51 -6 4 -4 12 6 21 14 13 15 12 9 -3 -3 -9 -3 -17 2 -17 11 0 131 110 128 118 -1 4 1 7 4 7 14 0 38 28 32 38 -3 5 -1 7 5 3 10 -6 27 10 27 27 0 4 3 6 6 5 13 -5 49 35 42 46 -3 6 -2 8 2 3 5 -4 19 3 32 15 25 23 32 48 8 28 -10 -9 -15 -9 -15 -1 0 10 14 15 33 12 8 -1 107 129 107 142 0 5 -5 5 -12 1 -7 -4 -8 -3 -4 5 4 6 11 9 16 6 8 -5 59 72 99 152 24 48 26 57 9 47 -7 -4 -8 -3 -4 5 4 6 11 9 16 6 11 -7 80 173 108 280 51 192 67 428 43 617 -14 103 -55 264 -95 368 -45 116 -115 252 -126 245 -5 -3 -12 0 -16 6 -4 8 -3 9 4 5 20 -12 13 8 -19 60 -85 133 -192 255 -218 247 -13 -4 -14 -3 -2 5 12 9 6 19 -33 56 -31 28 -54 43 -64 39 -12 -3 -14 -2 -4 4 17 12 -21 49 -39 37 -7 -4 -10 -3 -5 4 4 6 -16 28 -48 52 l-54 41 -59 -24 c-48 -20 -215 -79 -261 -93 -7 -2 24 -29 70 -60 184 -125 328 -264 434 -420 238 -348 310 -720 213 -1107 -11 -43 -17 -83 -13 -89 4 -6 3 -8 -3 -5 -6 4 -14 -5 -18 -20 -9 -38 -118 -254 -156 -311 -18 -26 -47 -66 -66 -89 -20 -26 -31 -48 -27 -55 4 -7 3 -9 -1 -5 -11 10 -186 -163 -178 -176 3 -6 1 -7 -6 -3 -7 4 -27 -6 -48 -25 -21 -18 -85 -63 -143 -102 -58 -38 -105 -73 -105 -77 0 -5 -4 -12 -9 -17 -5 -5 -6 -3 -2 5 10 17 8 16 -79 -24 -146 -67 -141 -67 -231 -28 -43 19 -101 46 -127 60 -26 13 -53 22 -60 18 -7 -4 -9 -4 -5 1 10 11 -119 98 -133 90 -5 -4 -8 -1 -7 7 2 8 -6 12 -22 11 -14 -1 -19 1 -12 4 10 4 9 9 -4 24 -20 22 -42 26 -24 4 9 -10 9 -15 1 -15 -6 0 -12 5 -12 10 -1 6 -2 13 -3 18 -2 16 -213 211 -221 204 -5 -4 -5 -1 -1 6 10 16 -21 53 -39 46 -7 -3 -15 2 -19 12 -5 14 -4 15 9 4 8 -7 15 -8 15 -2 0 15 -26 33 -35 24 -5 -4 -5 -1 -1 5 4 7 -10 37 -32 70 -44 65 -123 219 -141 276 -7 20 -16 35 -19 33 -4 -2 -7 8 -8 22 0 15 -11 63 -23 107 -12 44 -26 135 -31 202 -20 265 31 505 159 750 28 52 48 99 45 104 -3 5 -1 8 4 7 18 -5 71 78 66 103 -4 19 -3 20 4 6 7 -18 9 -18 22 -2 12 14 12 18 -1 27 -11 8 -11 9 3 5 11 -4 35 14 75 56 125 133 243 220 423 314 133 68 181 88 373 153 92 31 164 59 160 64 -4 4 0 4 9 1 17 -7 93 17 313 98 159 59 245 97 391 172 121 62 154 82 339 203 183 121 400 296 389 314 -4 6 -3 8 3 5 6 -4 37 18 71 48 33 30 62 55 65 55 3 0 -2 -33 -9 -72 -8 -40 -14 -95 -14 -122 0 -44 4 -53 39 -86 63 -60 142 -61 203 -4 29 29 43 63 52 129 3 22 20 128 37 235 16 107 28 202 26 212 -3 10 -2 16 2 13 5 -2 18 62 30 143 24 166 24 162 14 161 -5 -1 -30 -5 -58 -10z m-705 -583 c0 -2 -7 -7 -16 -10 -8 -3 -12 -2 -9 4 6 10 25 14 25 6z m663 -31 c-3 -9 -8 -14 -10 -11 -3 3 -2 9 2 15 9 16 15 13 8 -4z m-1083 -275 c0 -5 -5 -10 -11 -10 -5 0 -7 5 -4 10 3 6 8 10 11 10 2 0 4 -4 4 -10z m-320 -164 c0 -3 -4 -8 -10 -11 -5 -3 -10 -1 -10 4 0 6 5 11 10 11 6 0 10 -2 10 -4z m340 -116 c-8 -5 -17 -7 -19 -4 -3 3 1 9 9 14 8 5 17 7 19 4 3 -3 -1 -9 -9 -14z m-2460 -314 c0 -3 -4 -8 -10 -11 -5 -3 -10 -1 -10 4 0 6 5 11 10 11 6 0 10 -2 10 -4z m1704 -244 c3 -5 -1 -9 -9 -9 -8 0 -15 4 -15 9 0 4 4 8 9 8 6 0 12 -4 15 -8z m61 -42 c3 -6 -1 -7 -9 -4 -18 7 -21 14 -7 14 6 0 13 -4 16 -10z m445 -460 c6 -11 7 -20 2 -20 -6 0 -12 9 -15 20 -3 11 -3 20 -1 20 2 0 8 -9 14 -20z m27 -45 c0 -8 -4 -12 -9 -9 -4 3 -8 9 -8 15 0 5 4 9 8 9 5 0 9 -7 9 -15z m-2810 -697 c-3 -8 -6 -5 -6 6 -1 11 2 17 5 13 3 -3 4 -12 1 -19z m131 -503 c-3 -3 -9 2 -12 12 -6 14 -5 15 5 6 7 -7 10 -15 7 -18z m16 -31 c3 -8 2 -12 -4 -9 -6 3 -10 10 -10 16 0 14 7 11 14 -7z m20 -40 c3 -8 2 -12 -4 -9 -6 3 -10 10 -10 16 0 14 7 11 14 -7z m2979 -29 c-3 -9 -8 -14 -10 -11 -3 3 -2 9 2 15 9 16 15 13 8 -4z m-2072 -87 c11 -21 11 -22 -4 -9 -10 7 -17 17 -17 22 0 15 9 10 21 -13z m33 -53 c9 -14 12 -25 6 -25 -5 0 -10 4 -10 9 0 5 -7 17 -16 25 -8 9 -11 16 -6 16 5 0 17 -11 26 -25z m-840 -30 c3 -8 1 -15 -4 -15 -6 0 -10 7 -10 15 0 8 2 15 4 15 2 0 6 -7 10 -15z m-7 -47 c-3 -8 -6 -5 -6 6 -1 11 2 17 5 13 3 -3 4 -12 1 -19z m2753 -52 c0 -3 -4 -8 -10 -11 -5 -3 -10 -1 -10 4 0 6 5 11 10 11 6 0 10 -2 10 -4z m-397 -91 c-3 -9 -8 -14 -10 -11 -3 3 -2 9 2 15 9 16 15 13 8 -4z m-2153 -90 c7 -9 8 -15 2 -15 -5 0 -12 7 -16 15 -3 8 -4 15 -2 15 2 0 9 -7 16 -15z m910 -5 c0 -5 -4 -10 -10 -10 -5 0 -10 5 -10 10 0 6 5 10 10 10 6 0 10 -4 10 -10z m40 -42 c0 -5 -7 -3 -15 6 -8 8 -15 18 -15 22 0 3 7 1 15 -6 8 -7 15 -17 15 -22z m-909 5 c13 -17 13 -17 -6 -3 -11 8 -22 16 -24 17 -2 2 0 3 6 3 6 0 17 -8 24 -17z m-311 -30 c0 -5 16 -25 35 -47 19 -21 35 -43 35 -50 -1 -10 -12 2 -53 54 -7 9 -18 23 -26 33 -9 11 -10 17 -2 17 6 0 11 -3 11 -7z m400 -65 c0 -5 -7 -3 -15 6 -8 8 -15 18 -15 22 0 3 7 1 15 -6 8 -7 15 -17 15 -22z m-206 -140 c-10 -15 8 -31 18 -17 8 11 9 10 5 -3 -3 -9 -1 -19 6 -21 7 -2 9 -7 6 -10 -3 -4 -20 8 -37 26 -27 28 -29 33 -13 33 11 0 17 -4 15 -8z m2131 -57 c-3 -6 -11 -11 -16 -11 -5 0 -4 6 3 14 14 16 24 13 13 -3z m-2054 -27 c13 -14 17 -23 9 -19 -13 5 -46 45 -37 45 2 0 14 -11 28 -26z m954 -4 c3 -6 -1 -7 -9 -4 -18 7 -21 14 -7 14 6 0 13 -4 16 -10z m-835 -94 c0 -7 -3 -8 -8 -1 -4 6 -24 21 -44 35 -21 14 -38 28 -38 32 0 4 20 -7 45 -24 25 -18 45 -37 45 -42z m35 -16 c3 -6 -1 -7 -9 -4 -18 7 -21 14 -7 14 6 0 13 -4 16 -10z m200 -110 c3 -5 -1 -10 -10 -10 -9 0 -13 5 -10 10 3 6 8 10 10 10 2 0 7 -4 10 -10z m1205 -14 c0 -2 -7 -6 -15 -10 -8 -3 -15 -1 -15 4 0 6 7 10 15 10 8 0 15 -2 15 -4z m-1150 -16 c0 -5 -2 -10 -4 -10 -3 0 -8 5 -11 10 -3 6 -1 10 4 10 6 0 11 -4 11 -10z m35 -18 c-3 -3 -11 0 -18 7 -9 10 -8 11 6 5 10 -3 15 -9 12 -12z"/>
<path d="M15455 10337 c-73 -24 -108 -93 -86 -167 12 -41 66 -94 83 -84 6 4 8 3 5 -3 -4 -5 25 -31 64 -58 91 -62 212 -193 272 -294 27 -45 53 -79 58 -76 5 3 6 0 4 -7 -3 -8 10 -48 29 -89 43 -92 88 -243 112 -374 23 -124 26 -477 6 -595 -23 -127 -72 -319 -108 -418 -19 -52 -31 -99 -27 -106 3 -6 2 -7 -2 -3 -12 10 -126 -218 -119 -237 3 -8 1 -17 -5 -21 -7 -3 -8 0 -5 9 11 28 -4 17 -25 -20 -12 -19 -19 -40 -15 -45 3 -5 1 -8 -4 -7 -14 4 -104 -121 -96 -134 4 -6 3 -8 -4 -4 -13 8 -54 43 -45 57 3 5 2 7 -4 4 -13 8 -166 -147 -156 -158 4 -4 3 -6 -2 -2 -6 3 -22 -4 -35 -14 -14 -11 -65 -48 -115 -81 -49 -33 -89 -65 -87 -70 1 -5 -2 -7 -7 -3 -6 3 -23 -1 -38 -8 -41 -21 -181 -67 -237 -78 -34 -6 -82 -30 -150 -75 -56 -36 -164 -97 -241 -135 -77 -38 -138 -69 -135 -69 3 0 43 -7 90 -15 175 -31 412 -15 605 40 173 49 492 231 478 273 -4 14 -3 15 6 2 8 -12 14 -11 34 8 15 14 23 31 20 41 -3 11 2 21 11 24 9 4 16 2 16 -2 0 -5 -6 -11 -12 -14 -7 -2 -9 -8 -5 -13 4 -4 41 25 82 66 53 52 73 80 71 94 -2 12 -1 15 1 8 4 -10 11 -8 29 9 24 22 34 46 14 34 -5 -3 -10 -1 -10 5 0 7 7 10 15 6 23 -8 96 93 89 124 -3 19 -3 21 4 7 7 -18 9 -18 22 -2 12 14 12 18 -1 27 -11 8 -11 9 3 4 20 -6 64 57 52 75 -4 7 -3 9 4 6 14 -10 94 131 87 153 -3 10 -1 21 4 25 7 3 9 -1 6 -12 -3 -10 15 23 40 72 25 50 44 97 42 105 -1 8 3 20 9 25 29 23 126 391 139 525 4 36 8 75 10 87 22 141 11 453 -20 617 -28 143 -47 216 -56 211 -5 -4 -6 1 -3 9 11 29 -102 321 -124 321 -6 0 -14 4 -19 9 -5 5 -3 6 5 2 16 -9 15 -1 -3 35 -9 16 -20 27 -25 24 -5 -3 -12 0 -16 6 -4 8 -3 9 4 5 22 -13 12 6 -34 70 -25 36 -49 62 -55 59 -5 -3 -7 0 -4 7 3 7 -32 50 -80 98 -71 70 -87 82 -96 70 -9 -13 -10 -12 -5 2 7 24 -43 64 -57 46 -6 -9 -7 -8 -3 4 4 13 -8 26 -41 49 -58 41 -140 72 -148 58 -4 -6 -11 -6 -18 -1 -7 6 -24 5 -42 -1z m295 -157 c0 -5 -2 -10 -4 -10 -3 0 -8 5 -11 10 -3 6 -1 10 4 10 6 0 11 -4 11 -10z m-342 -45 c-3 -3 -9 2 -12 12 -6 14 -5 15 5 6 7 -7 10 -15 7 -18z m736 -461 c3 -8 2 -12 -4 -9 -6 3 -10 10 -10 16 0 14 7 11 14 -7z m-254 -69 c0 -8 -2 -15 -4 -15 -2 0 -6 7 -10 15 -3 8 -1 15 4 15 6 0 10 -7 10 -15z m190 -1715 c0 -5 -2 -10 -4 -10 -3 0 -8 5 -11 10 -3 6 -1 10 4 10 6 0 11 -4 11 -10z m-10 -30 c0 -5 -7 -10 -16 -10 -8 0 -12 5 -9 10 3 6 10 10 16 10 5 0 9 -4 9 -10z m-790 -565 c0 -2 -10 -9 -22 -15 -22 -11 -22 -10 -4 4 21 17 26 19 26 11z m370 -30 c-7 -9 -15 -13 -19 -10 -3 3 1 10 9 15 21 14 24 12 10 -5z m-420 -5 c0 -5 -5 -10 -11 -10 -5 0 -7 5 -4 10 3 6 8 10 11 10 2 0 4 -4 4 -10z m224 -162 c-3 -4 -9 -8 -15 -8 -5 0 -9 4 -9 8 0 5 7 9 15 9 8 0 12 -4 9 -9z m-59 -38 c-3 -5 -12 -10 -18 -10 -7 0 -6 4 3 10 19 12 23 12 15 0z"/>
<path d="M14945 6209 c-283 -44 -473 -231 -536 -528 -17 -83 -20 -123 -16 -195 22 -336 180 -546 467 -623 96 -25 298 -23 412 5 157 38 286 123 308 201 5 20 10 123 10 229 0 298 6 292 -295 292 -252 0 -274 -8 -275 -98 0 -91 25 -105 195 -112 l130 -5 3 -90 c2 -49 0 -100 -3 -113 -8 -31 -98 -88 -170 -107 -224 -58 -425 58 -497 288 -32 100 -31 274 1 362 43 119 123 209 227 257 41 19 66 23 154 22 118 0 166 -15 268 -81 78 -51 131 -52 173 -5 23 26 29 42 29 77 0 39 -6 52 -41 90 -48 52 -136 98 -230 119 -84 20 -239 27 -314 15z"/>
<path d="M16322 6210 c-105 -19 -205 -66 -285 -135 -93 -79 -115 -107 -166 -215 -98 -206 -96 -472 5 -687 48 -101 160 -216 256 -261 168 -81 368 -92 552 -31 185 61 335 238 387 455 30 126 23 322 -14 439 -68 207 -231 370 -423 419 -76 20 -242 28 -312 16z m269 -242 c153 -70 239 -229 239 -442 0 -165 -47 -284 -152 -381 -135 -125 -331 -125 -466 0 -111 103 -158 234 -149 415 8 154 41 243 124 331 44 47 106 84 167 100 60 16 177 4 237 -23z"/>
<path d="M12446 6189 c-57 -45 -56 -38 -56 -665 0 -631 -1 -621 59 -657 36 -21 102 -22 140 -2 60 31 61 37 61 666 0 607 0 610 -49 653 -13 12 -41 21 -74 24 -43 3 -57 0 -81 -19z"/>
<path d="M13077 6197 c-49 -15 -84 -49 -97 -95 -14 -50 -14 -1114 0 -1164 16 -57 60 -88 124 -88 67 0 101 25 117 83 8 29 10 168 9 437 -2 217 -2 401 -1 409 0 8 58 -70 129 -172 442 -649 491 -714 559 -743 74 -32 165 -6 195 56 17 32 18 83 18 618 0 647 2 630 -65 658 -70 29 -154 4 -175 -52 -6 -15 -10 -196 -10 -445 0 -230 -3 -419 -7 -419 -5 0 -72 96 -150 213 -186 280 -387 572 -430 625 -57 70 -142 101 -216 79z"/>
<path d="M11195 6191 c-49 -12 -83 -40 -105 -85 -19 -41 -20 -58 -20 -596 0 -535 1 -555 20 -595 11 -23 32 -47 46 -53 36 -17 116 -15 142 4 43 30 47 49 52 279 l5 220 111 2 c68 1 120 -3 134 -10 13 -7 80 -103 156 -227 153 -246 176 -275 229 -283 106 -17 179 88 129 186 -26 49 -205 329 -227 354 -11 13 -19 24 -16 25 2 2 26 14 53 27 145 74 225 246 196 425 -19 122 -78 209 -183 270 -87 51 -130 58 -422 62 -148 2 -284 0 -300 -5z m540 -224 c141 -62 167 -233 52 -334 -20 -18 -56 -38 -79 -44 -41 -12 -324 -20 -360 -11 -16 4 -18 22 -18 209 l0 205 183 -4 c146 -3 190 -7 222 -21z"/>
<path d="M12730 4475 l0 -25 -125 0 c-104 0 -125 -2 -125 -15 0 -12 19 -15 108 -15 59 -1 187 -3 285 -6 175 -6 177 -6 177 15 0 20 -5 21 -130 21 l-130 0 0 25 c0 21 -5 25 -30 25 -25 0 -30 -4 -30 -25z"/>
<path d="M13602 4486 c-5 -6 -13 -21 -16 -33 -6 -19 -14 -23 -51 -23 -37 0 -47 5 -65 30 -24 33 -67 43 -55 13 13 -34 10 -38 -27 -41 -24 -2 -38 -8 -38 -17 0 -11 19 -15 73 -17 64 -3 72 -5 72 -23 0 -18 -7 -20 -57 -20 -32 -1 -58 -4 -58 -8 0 -4 0 -11 0 -17 0 -6 27 -10 60 -10 53 0 60 -2 60 -20 0 -18 -7 -20 -80 -20 -74 0 -80 -2 -80 -20 0 -20 5 -20 188 -18 158 3 187 5 187 18 0 12 -17 16 -82 18 -75 3 -83 5 -83 22 0 18 7 20 65 20 58 0 65 2 65 20 0 18 -7 20 -65 20 -58 0 -65 2 -65 20 0 18 5 19 75 13 72 -6 75 -5 75 16 0 17 -6 21 -35 21 -34 0 -46 12 -25 25 17 10 11 32 -10 38 -10 3 -23 0 -28 -7z"/>
<path d="M14506 4483 c-3 -10 -5 -49 -5 -88 1 -134 4 -125 -42 -125 -36 0 -40 -2 -37 -22 2 -18 11 -24 36 -26 17 -2 32 -8 32 -14 0 -5 -17 -47 -39 -92 -35 -75 -37 -86 -26 -112 l13 -29 26 55 c14 30 26 61 26 68 0 6 4 12 9 12 6 0 9 -46 8 -107 -2 -105 -1 -108 21 -111 12 -2 22 0 22 5 1 4 1 55 2 113 0 58 3 109 6 114 3 5 15 -10 26 -33 22 -41 22 -42 40 -22 17 19 17 21 -13 65 -17 25 -36 48 -41 51 -24 15 -9 35 25 35 31 0 35 3 35 25 0 22 -4 25 -35 25 -31 0 -35 3 -35 26 0 23 2 25 16 13 19 -16 28 -5 49 65 20 65 19 76 -4 76 -15 0 -22 -12 -31 -50 -12 -51 -29 -75 -31 -43 0 10 -2 45 -3 78 -2 53 -5 60 -23 63 -14 2 -23 -3 -27 -15z"/>
<path d="M14807 4494 c-4 -4 -7 -18 -7 -31 0 -22 -4 -23 -65 -23 -51 0 -65 -3 -65 -15 0 -12 14 -15 65 -15 63 0 65 -1 65 -25 0 -24 -3 -25 -60 -25 -47 0 -60 -3 -60 -15 0 -12 13 -15 60 -15 57 0 60 -1 60 -25 0 -24 -2 -25 -75 -25 -68 0 -75 -2 -75 -20 0 -19 7 -20 180 -20 173 0 180 1 180 20 0 18 -7 20 -75 20 -73 0 -75 1 -75 25 0 24 3 25 60 25 47 0 60 3 60 15 0 12 -13 15 -60 15 -58 0 -60 1 -60 26 0 25 1 26 65 22 57 -3 65 -1 65 15 0 14 -10 17 -64 17 -63 0 -65 1 -68 28 -3 26 -34 43 -51 26z"/>
<path d="M15146 4468 c-10 -18 -32 -47 -48 -64 -28 -30 -28 -31 -9 -48 19 -17 21 -16 59 19 l40 36 22 -28 22 -28 -35 -3 c-41 -4 -49 -24 -42 -107 2 -27 4 -71 5 -97 l0 -48 38 0 c45 0 52 -4 45 -31 -5 -17 -15 -19 -85 -19 -76 0 -79 -1 -76 -21 3 -20 9 -22 59 -22 77 1 91 -10 48 -36 -19 -12 -41 -21 -49 -21 -8 0 -21 -4 -29 -9 -12 -8 -12 -12 -2 -25 29 -35 116 -4 169 59 29 36 30 36 98 33 l69 -3 3 -58 c3 -57 4 -58 30 -55 25 3 27 7 30 54 3 59 8 62 90 58 52 -3 53 -3 52 34 0 4 -31 7 -68 7 -66 0 -67 1 -70 28 -3 26 -1 27 37 27 l41 0 0 120 c0 92 -3 121 -14 127 -8 4 -18 20 -21 36 l-7 27 56 0 c49 0 56 2 56 20 0 19 -7 20 -95 20 -87 0 -95 2 -95 19 0 28 -41 39 -55 16 -5 -10 -25 -38 -43 -62 -18 -25 -31 -51 -28 -59 4 -11 -4 -14 -34 -14 -38 0 -40 2 -40 29 0 28 3 30 43 33 29 2 42 8 42 18 0 12 -16 16 -72 18 -65 3 -72 5 -75 25 -5 36 -40 33 -62 -5z m348 -83 c9 -13 16 -27 16 -30 0 -3 -27 -5 -60 -5 -33 0 -60 3 -60 7 0 4 10 17 22 30 28 30 62 29 82 -2z m46 -95 c0 -19 -7 -20 -165 -20 -158 0 -165 1 -165 20 0 19 7 20 165 20 158 0 165 -1 165 -20z m0 -70 c0 -19 -7 -20 -165 -20 -158 0 -165 1 -165 20 0 19 7 20 165 20 158 0 165 -1 165 -20z m-5 -70 c0 -13 -26 -15 -162 -18 -132 -2 -163 0 -163 11 0 8 3 17 7 21 4 3 77 5 162 4 131 -3 156 -5 156 -18z m-85 -74 c0 -27 -19 -34 -93 -34 -52 1 -62 8 -52 38 6 17 15 20 76 20 66 0 69 -1 69 -24z"/>
<path d="M13152 4458 c3 -21 9 -23 81 -26 77 -3 77 -3 77 23 0 25 -1 25 -81 25 -78 0 -80 -1 -77 -22z"/>
<path d="M14423 4437 c2 -7 10 -38 17 -70 9 -47 15 -57 32 -57 18 0 20 4 14 32 -17 86 -27 108 -47 108 -13 0 -19 -5 -16 -13z"/>
<path d="M13127 4383 c-4 -3 -7 -15 -7 -25 0 -16 10 -18 104 -18 94 0 104 2 109 19 3 11 2 22 -1 25 -8 8 -197 7 -205 -1z"/>
<path d="M12677 4372 l-138 -3 3 -97 3 -97 225 0 225 0 3 98 c3 95 2 97 -20 97 -13 1 -54 2 -93 3 -38 1 -132 1 -208 -1z m263 -97 l0 -75 -175 0 -175 0 0 68 c0 38 3 72 7 75 3 4 82 7 175 7 l168 0 0 -75z"/>
<path d="M12650 4270 l0 -40 115 0 115 0 0 40 0 40 -115 0 -115 0 0 -40z m190 0 c0 -18 -7 -20 -75 -20 -68 0 -75 2 -75 20 0 18 7 20 75 20 68 0 75 -2 75 -20z"/>
<path d="M13218 4293 c-60 -3 -68 -6 -68 -23 0 -18 7 -20 79 -20 45 0 83 5 86 10 7 11 -12 42 -24 38 -3 -1 -36 -3 -73 -5z"/>
<path d="M14010 4240 c-45 -45 -11 -120 54 -120 44 0 80 41 71 80 -13 56 -86 79 -125 40z"/>
<path d="M13540 4176 c0 -47 -9 -55 -47 -48 -30 6 -32 48 -3 57 29 9 24 25 -7 25 -68 0 -133 -13 -133 -26 0 -9 12 -14 35 -14 28 0 35 -4 35 -19 0 -23 -14 -29 -57 -25 -27 2 -33 -1 -33 -17 0 -16 7 -19 45 -19 41 0 45 -2 45 -24 0 -20 -6 -25 -40 -31 -31 -5 -40 -11 -40 -27 0 -18 5 -20 40 -15 39 5 40 4 40 -24 0 -29 -13 -35 -57 -30 -15 2 -17 -18 -4 -38 6 -10 20 -12 46 -8 52 8 65 23 65 72 0 39 2 43 30 49 44 8 40 36 -6 36 -28 0 -35 3 -32 18 2 12 15 18 45 20 l41 3 11 -52 c13 -58 8 -70 -39 -89 -31 -13 -40 -37 -16 -46 7 -3 29 5 49 16 l37 22 31 -26 c17 -14 39 -26 50 -26 25 0 59 35 59 60 0 10 -9 24 -20 30 -18 9 -20 8 -20 -15 0 -30 -34 -35 -49 -6 -8 14 -4 24 19 46 32 30 37 49 18 61 -6 4 -21 -5 -35 -21 -28 -31 -28 -31 -38 13 l-7 34 59 -3 c52 -3 58 -1 58 17 0 16 -8 19 -62 22 -62 3 -63 3 -63 32 0 41 -10 60 -31 60 -16 0 -19 -7 -19 -44z"/>
<path d="M13150 4186 c0 -20 5 -21 78 -22 76 -1 95 6 85 33 -4 10 -25 13 -84 12 -73 -2 -79 -3 -79 -23z"/>
<path d="M13620 4198 c0 -21 66 -58 79 -45 8 8 5 17 -11 34 -23 24 -68 31 -68 11z"/>
<path d="M14696 4193 c-3 -4 -6 -73 -6 -155 l0 -148 25 0 c24 0 25 3 25 55 l0 56 88 -3 c85 -3 87 -3 87 -28 0 -21 -5 -26 -33 -28 -28 -3 -33 -7 -30 -25 4 -28 59 -35 94 -12 24 16 25 17 22 153 l-3 137 -131 2 c-73 1 -134 -1 -138 -4z m222 -60 c3 -22 1 -23 -87 -23 -91 0 -91 0 -91 25 l0 26 88 -3 c82 -3 87 -4 90 -25z m0 -80 c3 -22 1 -23 -87 -23 -91 0 -91 0 -91 25 l0 26 88 -3 c82 -3 87 -4 90 -25z"/>
<path d="M12550 4121 c0 -14 14 -16 92 -16 80 0 93 -2 96 -17 3 -16 -10 -18 -125 -20 -112 -3 -128 -5 -131 -20 -3 -16 6 -18 92 -18 53 0 96 -4 96 -9 0 -8 -112 -61 -130 -61 -5 0 -20 -4 -35 -10 -22 -8 -24 -13 -15 -30 8 -16 17 -19 38 -14 42 10 133 52 168 79 18 14 35 25 38 25 3 0 6 -24 6 -54 0 -44 3 -55 19 -59 31 -8 41 6 36 52 -2 24 -2 48 1 53 3 5 22 -3 42 -18 43 -33 137 -73 173 -74 24 0 49 16 49 31 0 4 -24 13 -52 19 -65 15 -148 49 -148 61 0 5 45 9 100 9 93 0 100 1 100 20 0 19 -7 20 -130 20 -123 0 -130 1 -130 20 0 19 7 20 100 20 83 0 98 2 94 15 -5 12 -42 14 -225 13 -194 -1 -219 -3 -219 -17z"/>
<path d="M13150 4005 c0 -96 2 -105 19 -105 10 0 21 7 25 15 4 11 21 15 63 15 l58 0 -1 48 c-1 26 -2 66 -3 90 l-1 42 -80 0 -80 0 0 -105z m120 15 l0 -50 -40 0 -40 0 0 50 0 50 40 0 40 0 0 -50z"/>
</g>
</svg>
